# xmcd
#
# Track frame offsets:
#	150
#	11351
#	26159
#	43332
#	56366
#	70720
#
# Disc length: 1137 seconds
# Revision: 0
# Processed by: cddbd v1.5.2PL0 Copyright (c) Steve Scherf et al.
# Submitted via: dBpowerAMP V12.0
#
DISCID=47046f06
DTITLE=Karin Risberg - Angel Blue
DYEAR=2015
DGENRE=Country
TTITLE0=My Heart Skips A Beat
TTITLE1=Evangeline
TTITLE2=Blue Bayou
TTITLE3=Oh Lonesome Me
TTITLE4=Angel Blue
TTITLE5=Sea Of Heartbreak
EXTD=
EXTT0=
EXTT1=
EXTT2=
EXTT3=
EXTT4=
EXTT5=
PLAYORDER=
